<svg xmlns="http://www.w3.org/2000/svg" viewBox="0 0 360 440" width="360" height="440" fill="none" font-family="'Courier New',monospace">
  <defs>
    <linearGradient id="g1" x1="0" y1="0" x2="1" y2="1"><stop offset="0" stop-color="#00f0ff"/><stop offset="0.5" stop-color="#a855f7"/><stop offset="1" stop-color="#ff00e5"/></linearGradient>
    <radialGradient id="spot" cx="0.5" cy="0.42" r="0.55"><stop offset="0" stop-color="#1b2c52" stop-opacity="0.9"/><stop offset="1" stop-color="#07070d" stop-opacity="0"/></radialGradient>
    <filter id="fg" x="-60%" y="-60%" width="220%" height="220%"><feGaussianBlur stdDeviation="3" result="b"/><feMerge><feMergeNode in="b"/><feMergeNode in="SourceGraphic"/></feMerge></filter>
    <filter id="fs" x="-60%" y="-60%" width="220%" height="220%"><feGaussianBlur stdDeviation="1.3" result="b"/><feMerge><feMergeNode in="b"/><feMergeNode in="SourceGraphic"/></feMerge></filter>
    <pattern id="grid" width="30" height="30" patternUnits="userSpaceOnUse"><path d="M30 0 L0 0 0 30" fill="none" stroke="#0f1d33" stroke-width="1"/></pattern>
  </defs>

  <!-- card -->
  <rect x="3" y="3" width="354" height="434" rx="20" fill="#07070d" stroke="url(#g1)" stroke-width="2"><animate attributeName="opacity" values="0.9;1;0.9" dur="3s" repeatCount="indefinite"/></rect>
  <rect x="3" y="3" width="354" height="434" rx="20" fill="url(#grid)" opacity="0.5"/>
  <rect x="3" y="3" width="354" height="434" rx="20" fill="url(#spot)"/>

  <!-- rotating neon ring -->
  <g>
    <circle cx="180" cy="208" r="140" fill="none" stroke="url(#g1)" stroke-width="2" stroke-dasharray="6 14" opacity="0.55"><animateTransform attributeName="transform" type="rotate" from="0 180 208" to="360 180 208" dur="20s" repeatCount="indefinite"/></circle>
    <circle cx="180" cy="208" r="140" fill="none" stroke="#00f0ff" stroke-width="1" stroke-dasharray="2 28" opacity="0.4"><animateTransform attributeName="transform" type="rotate" from="360 180 208" to="0 180 208" dur="26s" repeatCount="indefinite"/></circle>
  </g>

  <!-- floating holo tokens -->
  <g font-weight="bold" filter="url(#fs)">
    <text x="44" y="96" font-size="20" fill="#00f0ff" opacity="0.85">&lt;/&gt;<animateTransform attributeName="transform" type="translate" values="0 0;0 -6;0 0" dur="3.5s" repeatCount="indefinite"/></text>
    <text x="286" y="120" font-size="20" fill="#ff00e5" opacity="0.85">{ }<animateTransform attributeName="transform" type="translate" values="0 0;0 7;0 0" dur="4.2s" repeatCount="indefinite"/></text>
    <text x="300" y="250" font-size="16" fill="#a855f7" opacity="0.85">AI<animateTransform attributeName="transform" type="translate" values="0 0;0 -5;0 0" dur="3.8s" repeatCount="indefinite"/></text>
    <text x="40" y="250" font-size="22" fill="#a855f7" opacity="0.8">λ<animateTransform attributeName="transform" type="translate" values="0 0;0 6;0 0" dur="4.6s" repeatCount="indefinite"/></text>
  </g>

  <!-- ================= CHARACTER (gentle bob) ================= -->
  <g>
    <animateTransform attributeName="transform" type="translate" values="0 0;0 -4;0 0" dur="4s" repeatCount="indefinite"/>

    <!-- base platform -->
    <ellipse cx="180" cy="424" rx="92" ry="13" fill="#00f0ff" opacity="0.18" filter="url(#fg)"/>

    <!-- hoodie body -->
    <path d="M150,214 L96,250 C72,274 66,302 66,440 L294,440 C294,302 288,274 264,250 L210,214 Z" fill="#1b2c52" stroke="#2a3f6e" stroke-width="2"/>
    <!-- hood collar behind neck -->
    <path d="M138,210 C150,250 210,250 222,210 C214,236 146,236 138,210 Z" fill="#14213f"/>
    <!-- neckline V -->
    <path d="M152,214 Q180,242 208,214" fill="none" stroke="#14213f" stroke-width="6" stroke-linecap="round"/>
    <!-- zipper -->
    <line x1="180" y1="238" x2="180" y2="440" stroke="url(#g1)" stroke-width="2.5" filter="url(#fs)"/>
    <!-- drawstrings -->
    <line x1="168" y1="236" x2="166" y2="300" stroke="#cfe3ff" stroke-width="2.5" stroke-linecap="round"/>
    <line x1="192" y1="236" x2="194" y2="300" stroke="#cfe3ff" stroke-width="2.5" stroke-linecap="round"/>
    <circle cx="166" cy="302" r="3" fill="#00f0ff"/><circle cx="194" cy="302" r="3" fill="#ff00e5"/>
    <!-- chest chip -->
    <polygon points="180,326 196,336 196,356 180,366 164,356 164,336" fill="#0b1530" stroke="url(#g1)" stroke-width="1.8" filter="url(#fs)"/>
    <text x="180" y="352" text-anchor="middle" font-size="12" font-weight="bold" fill="#00f0ff">AI</text>

    <!-- neck -->
    <rect x="166" y="196" width="28" height="26" rx="8" fill="#e7b48c"/>

    <!-- hair back -->
    <ellipse cx="180" cy="120" rx="62" ry="52" fill="#14142a"/>
    <!-- face -->
    <ellipse cx="180" cy="152" rx="56" ry="58" fill="#f6cda8"/>
    <!-- ears -->
    <circle cx="126" cy="160" r="10" fill="#f0c098"/><circle cx="234" cy="160" r="10" fill="#f0c098"/>
    <!-- cheeks -->
    <circle cx="142" cy="176" r="11" fill="#ff8fb0" opacity="0.30"/><circle cx="218" cy="176" r="11" fill="#ff8fb0" opacity="0.30"/>
    <!-- fringe -->
    <path d="M124,150 Q126,104 180,100 Q234,104 236,150 Q232,120 210,110 Q224,138 214,146 Q206,116 184,112 Q188,140 176,148 Q172,118 150,116 Q136,128 124,150 Z" fill="#14142a"/>
    <!-- hair neon highlights -->
    <path d="M150,116 Q140,132 132,150" fill="none" stroke="#00f0ff" stroke-width="1.4" opacity="0.7"/>
    <path d="M210,110 Q220,130 226,150" fill="none" stroke="#ff00e5" stroke-width="1.4" opacity="0.6"/>

    <!-- eyebrows -->
    <path d="M138,140 Q150,135 162,139" stroke="#23233b" stroke-width="3" fill="none" stroke-linecap="round"/>
    <path d="M198,139 Q210,135 222,140" stroke="#23233b" stroke-width="3" fill="none" stroke-linecap="round"/>

    <!-- eyes -->
    <g>
      <ellipse cx="150" cy="158" rx="10" ry="8" fill="#ffffff"/>
      <ellipse cx="210" cy="158" rx="10" ry="8" fill="#ffffff"/>
      <circle cx="152" cy="159" r="4.5" fill="#1a1a2e"/><circle cx="212" cy="159" r="4.5" fill="#1a1a2e"/>
      <circle cx="153.5" cy="157" r="1.6" fill="#fff"/><circle cx="213.5" cy="157" r="1.6" fill="#fff"/>
      <!-- blink eyelids -->
      <ellipse cx="150" cy="158" rx="11" ry="0" fill="#f6cda8"><animate attributeName="ry" values="0;0;9;0;0" keyTimes="0;0.92;0.95;0.98;1" dur="4.5s" repeatCount="indefinite"/></ellipse>
      <ellipse cx="210" cy="158" rx="11" ry="0" fill="#f6cda8"><animate attributeName="ry" values="0;0;9;0;0" keyTimes="0;0.92;0.95;0.98;1" dur="4.5s" repeatCount="indefinite"/></ellipse>
    </g>

    <!-- glasses -->
    <g stroke="#00f0ff" stroke-width="2.6" fill="#0a1828" fill-opacity="0.18" filter="url(#fs)">
      <rect x="130" y="144" width="42" height="30" rx="9"/>
      <rect x="188" y="144" width="42" height="30" rx="9"/>
    </g>
    <line x1="172" y1="153" x2="188" y2="153" stroke="#00f0ff" stroke-width="2.6"/>
    <line x1="130" y1="150" x2="118" y2="156" stroke="#00f0ff" stroke-width="2.6"/>
    <line x1="230" y1="150" x2="242" y2="156" stroke="#00f0ff" stroke-width="2.6"/>

    <!-- nose + mouth -->
    <path d="M180,166 l-3,11 q3,3 6,0" fill="none" stroke="#d9a47e" stroke-width="2" stroke-linecap="round"/>
    <path d="M166,186 Q180,197 194,186" fill="none" stroke="#b5654a" stroke-width="3" stroke-linecap="round"/>

    <!-- headphones -->
    <path d="M110,156 C110,72 250,72 250,156" fill="none" stroke="#23233b" stroke-width="10" stroke-linecap="round"/>
    <path d="M110,156 C110,72 250,72 250,156" fill="none" stroke="#00f0ff" stroke-width="2" stroke-linecap="round" opacity="0.7"/>
    <rect x="102" y="146" width="26" height="42" rx="11" fill="#23233b" stroke="#ff00e5" stroke-width="2"/>
    <rect x="232" y="146" width="26" height="42" rx="11" fill="#23233b" stroke="#00f0ff" stroke-width="2"/>
  </g>

  <!-- name plate -->
  <text x="180" y="406" text-anchor="middle" font-size="15" font-weight="bold" fill="url(#g1)" filter="url(#fs)" letter-spacing="2">XINPING LEI</text>
</svg>
